<svg width="30" height="16" viewBox="0 0 30 16" fill="none" xmlns="http://www.w3.org/2000/svg">
<g clip-path="url(#clip0_1771_5409)">
<path d="M14.8753 6.1012C16.4347 6.1012 17.6988 4.79426 17.6988 3.18207C17.6988 1.56988 16.4347 0.262939 14.8753 0.262939C13.316 0.262939 12.0519 1.56988 12.0519 3.18207C12.0519 4.79426 13.316 6.1012 14.8753 6.1012Z" fill="#E2851B"/>
<path d="M14.8754 6.88489C16.7882 6.88489 18.3449 8.4891 18.3449 10.472V15.2425C18.3449 15.5161 18.1312 15.737 17.8667 15.737H11.8942C11.6296 15.737 11.416 15.5161 11.416 15.2425V10.472C11.416 8.49435 12.9676 6.88489 14.8855 6.88489H14.8754Z" fill="#E2851B"/>
<path d="M3.46956 6.1012C5.02892 6.1012 6.29303 4.79426 6.29303 3.18207C6.29303 1.56988 5.02892 0.262939 3.46956 0.262939C1.9102 0.262939 0.646088 1.56988 0.646088 3.18207C0.646088 4.79426 1.9102 6.1012 3.46956 6.1012Z" fill="#E2851B"/>
<path d="M3.46956 6.88489C5.3824 6.88489 6.93912 8.4891 6.93912 10.472V15.2425C6.93912 15.5161 6.72545 15.737 6.46091 15.737H0.478209C0.213668 15.737 0 15.5161 0 15.2425V10.472C0 8.49435 1.55164 6.88489 3.46956 6.88489Z" fill="#E2851B"/>
<path d="M26.2761 6.1012C27.8354 6.1012 29.0995 4.79426 29.0995 3.18207C29.0995 1.56988 27.8354 0.262939 26.2761 0.262939C24.7167 0.262939 23.4526 1.56988 23.4526 3.18207C23.4526 4.79426 24.7167 6.1012 26.2761 6.1012Z" stroke="#575757" stroke-miterlimit="10"/>
<path d="M26.2761 6.88489C28.1889 6.88489 29.7456 8.4891 29.7456 10.472V15.2425C29.7456 15.5161 29.532 15.737 29.2674 15.737H23.2949C23.0304 15.737 22.8167 15.5161 22.8167 15.2425V10.472C22.8167 8.49435 24.3683 6.88489 26.2862 6.88489H26.2761Z" stroke="#575757" stroke-miterlimit="10"/>
</g>
<defs>
<clipPath id="clip0_1771_5409">
<rect width="30" height="16" fill="white"/>
</clipPath>
</defs>
</svg>
